<svg xmlns="http://www.w3.org/2000/svg" viewBox="0 0 780 626">
    <g fill="none" fill-rule="evenodd">
        <path fill="#262626" d="M0 278h780v336c0 6.627417-5.372583 12-12 12H12c-6.627417 0-12-5.372583-12-12V278Z"/>
        <path fill="#323232" d="M12 183h756c6.627417 0 12 5.372583 12 12v83H0v-83c0-6.627417 5.372583-12 12-12Z"/>
        <rect width="780" height="120" fill="#262626" rx="12"/>
        <g fill-rule="nonzero">
            <g fill="#B1B1B1">
                <path d="M207.455 473.06v24.157h-5.298V473.06h5.298Zm-24.051 16.104v7.84h-5.298v-7.84h5.298Zm7.946-9.324v17.165h-5.298V479.84h5.298Zm7.84 5.404v11.973h-5.297v-11.973h5.297Zm32.528 2.755c-.53 5.933-4.132 9.853-10.701 9.853-6.993 0-11.655-5.085-11.655-12.608 0-6.993 4.45-12.608 11.76-12.608 5.828 0 9.96 3.602 10.384 8.688h-5.086c-.53-2.649-2.543-4.132-5.403-4.132-4.556 0-6.357 4.132-6.357 8.264 0 4.98 2.436 8.158 6.357 8.158 3.178 0 5.085-1.907 5.51-5.403h5.19v-.212h.001Zm4.98 9.006v-24.157h7.416l5.616 16.528 5.51-16.528h7.31v24.157h-4.98V479.84l-5.933 17.059h-4.026l-5.934-16.847V496.9h-4.98v.106l.001-.001Zm44.182.106v-12.29c0-4.875-3.92-5.722-7.417-5.722h-.106c-5.086 0-7.734 2.013-8.052 5.933h4.45c.318-2.013 1.165-2.649 3.39-2.649 2.12 0 3.179.742 3.179 2.331 0 1.378-1.06 1.696-4.132 2.12l-.742.105c-3.285.424-6.887 1.166-6.887 5.51 0 3.284 2.331 5.297 6.251 5.297 2.12 0 4.132-.635 5.616-2.225v1.696h4.45v-.106Zm-4.662-8.476v2.013c0 2.542-1.801 3.814-4.238 3.814-1.695 0-2.649-.848-2.649-2.331 0-2.12 1.907-2.331 3.496-2.649 1.272-.212 2.331-.212 3.39-.847h.001Zm11.019 8.476v-10.913c0-1.06.848-2.12 2.119-2.12h4.344v-4.661h-4.45c-3.708 0-6.675 3.072-6.675 6.78v10.808c0 .106 4.662.106 4.662.106Zm46.407-24.157v6.463h5.298v4.662h-5.298v6.145c0 1.06.848 2.119 2.12 2.119h3.284v4.662h-3.285c-3.708 0-6.675-3.073-6.675-6.781v-17.27h4.556Zm-22.462 6.569-6.569 6.463 7.31 10.913h-5.72l-4.874-7.735-2.014 1.907v5.934h-4.661v-24.157h4.661v12.926l6.146-6.251h5.721Z"/>
                <path d="M327.287 491.601h-4.556c-.636 1.801-1.801 2.543-3.496 2.543-2.543 0-4.027-1.695-4.027-4.556h12.503v-.424c0-6.145-3.285-9.96-8.582-9.96-5.086 0-8.794 3.921-8.794 9.325 0 5.51 3.496 9.111 8.9 9.111 3.92-.105 6.992-2.33 8.052-6.039Zm-4.556-5.191h-7.523c.212-2.437 1.802-3.92 3.815-3.92 2.437 0 3.602 1.906 3.708 3.92Zm32.633-1.802h-4.45c-.212-1.907-1.377-2.437-3.284-2.437-1.695 0-2.755.636-2.755 1.802 0 1.165 1.06 1.483 3.179 2.013l1.695.318c2.966.635 6.251 1.483 6.251 5.297 0 3.603-2.967 5.934-7.84 5.934-4.345 0-8.159-1.802-8.159-6.146h4.45c.212 2.12 1.484 2.967 3.709 2.967 2.013 0 3.178-.848 3.178-2.225 0-1.377-1.271-1.801-3.708-2.331l-.424-.106c-3.073-.636-6.887-1.165-6.887-5.298 0-3.39 2.755-5.403 7.523-5.403 4.026.106 7.416 1.59 7.522 5.615Z"/>
            </g>
            <path fill="#B1B1B1" d="M106.7670002 358.783h3.544v1.84c.57-.7 1.301-1.253 2.13-1.61.9185982-.3947323 1.910305-.5906881 2.91-.575 1.4183584-.0225716 2.8148263.3514823 4.032 1.08 1.184406.7119478 2.1583153 1.7258903 2.822 2.938 1.3829482 2.6023446 1.3829482 5.7216554 0 8.324-.664579 1.2114531-1.638286 2.225185-2.822 2.938-1.2268152.7299613-2.6326435 1.1039255-4.06 1.08-.9150123.0086591-1.8237004-.1523957-2.68-.475-.7940796-.2989302-1.5119819-.7702457-2.102-1.38v7.272h-3.774v-21.432Zm10.413 11.96c.6675236-.4075893 1.2105357-.9903762 1.57-1.685.392-.751.59-1.588.576-2.434.0148123-.8421769-.1829493-1.6744951-.575-2.42-.3661906-.6896498-.9081604-1.2702578-1.571-1.683-1.014446-.6325416-2.2467053-.8134269-3.4001419-.4991121-1.1534365.3143148-2.1235676 1.0953577-2.6768581 2.1551121-.7484099 1.5465486-.7484099 3.3504514 0 4.897.7261859 1.4178922 2.1951719 2.2997492 3.788 2.274.8050166.0135138 1.5978045-.1981041 2.289-.611v.007-.001Zm11.178 2.968c-1.1935279-.7132819-2.1693648-1.7392593-2.822-2.967-.6773143-1.2738425-1.0239127-2.6973718-1.008-4.14-.02847-1.4625456.3244452-2.9072925 1.024-4.192.6576-1.1962107 1.6211119-2.1963029 2.792-2.898 1.1969218-.7133305 2.5677389-1.0819041 3.961-1.065 1.633 0 3.013.35 4.14 1.051 1.1056603.6674986 2.0054229 1.6274761 2.6 2.774.6 1.185.905 2.498.887 3.826 0 .288-.013.57-.04.848-.025.251-.078.498-.16.736h-11.286c.150143 1.8246139 1.4648894 3.3417632 3.2496035 3.7498743 1.7847141.408111 3.6281716-.386851 4.5563965-1.9648743l3.053 1.498c-.5253793 1.1676098-1.4123952 2.1352635-2.53 2.76-2.6237173 1.4464811-5.8071039 1.4411919-8.426-.014l.01-.002h-.001Zm1.514-11.305c-.7130154.6185801-1.186788 1.4674079-1.339 2.399h7.36c-.0466039-.8975285-.4446308-1.7406415-1.108-2.347-.6821255-.6126503-1.5746284-.9379785-2.491-.908-.8830567-.0168151-1.7427072.284524-2.422.849v.007Zm11.67-3.623h3.543v1.84c.5703973-.7007815 1.3018713-1.253161 2.1319998-1.61.918607-.3947033 1.910308-.5906579 2.91-.575 1.418299-.0220934 2.814639.351926 4.032 1.08 1.184105.7123256 2.157926 1.7261762 2.822 2.938 1.383125 2.6023005 1.383125 5.7216995 0 8.324-.664811 1.2112825-1.638466 2.2249597-2.822 2.938-1.227643.7297321-2.634044 1.1036643-4.062 1.08-.914343.0084348-1.822334-.1526168-2.678-.475-.7940643-.2989599-1.5119604-.7702714-2.1019998-1.38v7.272h-3.774v-21.432h-.001ZM151.955 370.743c.667417-.4074112 1.210147-.9902674 1.569-1.685.392-.75.59-1.587.577-2.434.014586-.8423919-.183888-1.6748153-.577-2.42-.365365-.6895951-.906682-1.2702433-1.569-1.683-1.54889-.968092-3.541077-.8484725-4.9629998.298-.461.371-.84.833-1.114 1.358-.7484099 1.5465486-.7484099 3.3504514 0 4.897.7267649 1.4163975 2.1942078 2.2977934 3.7859998 2.274.803.013 1.595-.2 2.284-.611l.007.007v-.001Zm7.88-11.96h3.543v1.84c.570425-.7007528 1.301892-1.2531265 2.132-1.61.918571-.3948193 1.910297-.5907788 2.91-.575 1.418319-.0222527 2.814701.3517782 4.032 1.08 1.183774.7127398 2.157499 1.7264899 2.822 2.938 1.382948 2.6023446 1.382948 5.7216554 0 8.324-.664966 1.2111688-1.638585 2.2248098-2.822 2.938-1.22754.7299771-2.634012 1.1039282-4.062 1.08-.914017.0084266-1.821679-.1526266-2.677-.475-.794453-.2987696-1.512714-.7700968-2.103-1.38v7.272h-3.782l.007-21.432Zm10.413 11.96c.667417-.4074112 1.210147-.9902674 1.569-1.685.391806-.7507056.590128-1.5873015.577-2.434.01411-.84234-.184336-1.6746469-.577-2.42-.365365-.6895951-.906682-1.2702433-1.569-1.683-1.014291-.6325073-2.246405-.813373-3.399684-.4990495-1.153279.3143235-2.12323 1.0953573-2.676316 2.1550495-.750041 1.5461743-.750041 3.3508257 0 4.897.724985 1.4175846 2.19299 2.2995511 3.785 2.274.804.013 1.595-.2 2.285-.611l.006.007v-.001Zm11.195 2.968c-1.19444-.7130945-2.171294-1.7390502-2.825-2.967-.677289-1.2738109-1.023563-2.6974188-1.007-4.14-.028885-1.4625915.324055-2.9074434 1.024-4.192.655708-1.1952966 1.616714-2.1952946 2.785-2.898 1.196963-.7132339 2.567752-1.0818001 3.961-1.065 1.633 0 3.013.35 4.14 1.051 1.106189.6668452 2.006109 1.6269908 2.6 2.774.603541 1.186228.910313 2.501161.894 3.832 0 .288-.016.57-.044.85-.024.25-.077.497-.158.735h-11.292c.149541 1.825261 1.464534 3.3431986 3.24984 3.7513927 1.785306.4081941 3.629284-.3874734 4.55716-1.9663927l3.052 1.498c-.525019 1.167847-1.412127 2.1356018-2.53 2.76-2.622544 1.4469-5.80528 1.44161-8.423-.014l.016-.01v.001Zm1.512-11.305c-.713198.6202495-1.187192 1.4702566-1.34 2.403h7.361c-.047075-.8971226-.445044-1.7397539-1.108-2.346-.682224-.6132558-1.57515-.938966-2.492-.909-.885597-.0199304-1.748694.2800768-2.431.845l.01.007Zm11.65-3.616h3.542v2.217c.32-.81.923-1.476 1.7-1.872.794372-.358497 1.658655-.5354529 2.53-.518h.92v3.335h-1.355c-.959484-.037421-1.891998.3221288-2.578.994-.663.662-.994 1.589-.994 2.779v8.726h-3.772l.007-15.661Zm11.297 14.806c-1.192995-.7496515-2.092193-1.8864462-2.547-3.22l2.822-1.353c.377.826.962 1.54 1.7 2.07.697643.4957795 1.534177.7582901 2.39.75.575819.0268336 1.145355-.1292899 1.627-.446.400682-.2766173.63404-.7373115.62-1.224.011695-.4182795-.188356-.814246-.532-1.053-.387998-.2734531-.822858-.4734278-1.283-.59l-2.57-.735c-1.324-.384-2.328-.97-3.01-1.758-.675175-.7724808-1.039389-1.7681903-1.022-2.794-.021659-.8987912.234679-1.782355.734-2.53.513593-.7293345 1.21797-1.3032842 2.036-1.659 2.253557-.950469 4.824638-.7737931 6.927.476 1.116339.7002538 1.967776 1.7522358 2.42 2.99l-2.882 1.353c-.241611-.7012941-.713115-1.3003649-1.338-1.7-.636804-.4188763-1.383812-.6388711-2.146-.632-.534016-.0313038-1.062656.1211478-1.498.432-.353228.2638342-.557024.6822299-.547 1.123-.014767.4109941.179889.8014358.517 1.037.405.275.853.48 1.325.605l2.507.747c1.307.367 2.304.943 2.99 1.73.688281.776768 1.058552 1.7843901 1.037 2.822.016007.888096-.245859 1.7590025-.749 2.491-.523765.7398545-1.239464 1.3227861-2.07 1.686-.981895.4226601-2.043269.6290004-3.112.605-1.540464.0275991-3.05478-.4002918-4.353-1.23l.007.007Zm15.283-.433c-.97-.98-1.454-2.343-1.454-4.09v-7.12h-2.707v-3.17h.288c.768 0 1.364-.2 1.786-.605.424-.405.633-.99.633-1.757V354.1h3.775v4.683h3.602v3.17h-3.6v6.9c0 .786.209 1.391.632 1.815.424.423 1.095.632 2.018.632.337-.002.674-.03 1.007-.085v3.22c-.268.04-.577.078-.92.115-.315322.0374542-.632471.0574846-.95.0601518-1.774.0098482-3.147-.4741518-4.117-1.4541518l.007.007Zm10.642.575c-2.566271-1.4471191-4.154651-4.1638333-4.157005-7.11-.003384-2.9461059 1.579638-5.6658629 4.143005-7.118 2.61359-1.4199513 5.76841-1.4199513 8.382 0 1.234128.6920094 2.265377 1.6953312 2.991 2.91 1.482323 2.614053 1.477003 5.8158878-.014 8.425-.725309 1.21457-1.756211 2.2178885-2.99 2.91-2.603867 1.4069827-5.742889 1.4005849-8.341-.017h-.014Zm6.424-2.99c.653303-.4124407 1.181626-.9953938 1.528-1.686.3811-.7536639.573609-1.5885551.561-2.433.014109-.840331-.178179-1.671289-.56-2.42-.35322-.6856707-.880514-1.2664181-1.529-1.684-.666826-.4199239-1.442134-.6351329-2.23-.619-.798346-.0134328-1.583887.201689-2.264.62-.660314.410877-1.197529.9923124-1.555 1.683-.38279.7483573-.575135 1.5795608-.56 2.42-.015.844.178 1.68.56 2.433.35.696.89 1.28 1.555 1.686.683727.4082668 1.467758.6177804 2.264.605.784885.0107754 1.556507-.2029472 2.224-.616l.006.011Zm7.84-11.96h3.544v1.93c.410265-.7380719 1.038116-1.3317018 1.798-1.7.822372-.3940906 1.725206-.5912966 2.637-.576 1.07036-.0199063 2.12754.2385307 3.068.75.878423.4853436 1.602395 1.2082754 2.089 2.086.513.951.77 2.019.747 3.099v10.079h-3.772v-9.191c0-1.037-.293-1.858-.878-2.464-.604717-.6126531-1.439909-.9416463-2.3-.906-.863383-.0371516-1.701226.2978399-2.301.92-.587.616-.879 1.43-.879 2.45v9.186h-3.76l.007-15.664v.001Zm19.337 14.92c-1.194649-.7125148-2.171318-1.7386392-2.824-2.967-.677153-1.2739037-1.023741-2.6973914-1.008-4.14-.028075-1.4618658.324826-2.9058676 1.024-4.19.655812-1.1949583 1.616814-2.1946076 2.785-2.897 1.196591-.713249 2.567065-1.0818234 3.96-1.065 1.634 0 3.014.35 4.14 1.051 1.104088.668194 2.002387 1.6280874 2.596 2.774.604032 1.1860488.910833 2.5011045.894 3.832 0 .288-.016.57-.043.85-.024.25-.077.497-.16.735h-11.29c.073.89.427 1.733 1.01 2.407.886288 1.0219533 2.21037 1.55473 3.557476 1.4314369 1.347105-.1232931 2.552475-.8875764 3.238524-2.0534369l3.052 1.498c-.525379 1.1676098-1.412395 2.1352635-2.53 2.76-2.622642 1.4465183-5.805181 1.4412285-8.423-.014l.02-.012h.001Zm1.511-11.305c-.712724.62076-1.186024 1.4711427-1.338 2.404h7.36c-.046803-.8974032-.445232-1.7402481-1.109-2.346-.681665-.6128603-1.573817-.9385495-2.49-.909-.885537-.0193084-1.748329.2814258-2.43.847l.007.004ZM90.4810002 354.44c-8.115-4.665-25.013-8.33-33.95999999-8.568-8.948-.238-9.947 2.95-9.4 10.208.55 7.26 2.642 18.586 7.26 25.82 4.61599999 7.235 11.75599999 10.377 19.32399999 7.784 7.567-2.595 15.565-10.925 19.895-17.922 4.33-6.992 4.997-12.658-3.119-17.322Z"/>
            <path fill="#FFF" d="M74.5940002 374.372h-5.691v9.465h-5.795V362.78h5.795v5.795h5.69v-.016c2.3841843-.0509324 4.2903677-1.9982718 4.2903677-4.383s-1.9061834-4.3320676-4.2903677-4.383v-.005H55.86300021l2.11799999-5.794h16.609c5.638 0 10.2100015 4.572 10.2100015 10.21.0029985 5.64-4.5700015 10.168-10.2070015 10.168h.001Z"/>
            <path fill="#B1B1B1" d="m726.215 356.146-4.974 8.616-4.974-8.616h-6.805l8.762 13.423v9.886h5.619v-9.886l8.97-13.423h-6.598Zm-40.187 9.968h-2.664v-5.431h2.997c1.686 0 3.746.416 3.746 2.601 0 2.373-2.268 2.83-4.079 2.83m9.636-2.934c0-5.328-4.454-7.034-8.928-7.034h-8.887v23.309h5.536v-9.261h1.915l5.036 9.26h6.597l-6.097-9.968c2.996-.937 4.849-3.163 4.828-6.306m-47.93 11.26c-3.704 0-6.264-2.852-6.264-6.827 0-3.85 2.54-6.701 6.265-6.701 3.725 0 6.306 2.85 6.306 6.7 0 3.955-2.623 6.827-6.306 6.827m0-18.314c-6.868 0-11.967 4.433-11.967 11.488 0 6.951 5.099 11.675 11.967 11.675 6.888 0 11.987-4.724 11.987-11.675 0-7.055-5.099-11.488-11.987-11.488m-35.526.02h5.328v23.31h-5.328v-23.31Zm-34.797 0h-7.721l6.68 9.012 3.892-5.182-2.85-3.83h-.001Zm10.115 0-17.337 23.289h7.784l17.274-23.288h-7.721v-.001Zm.353 23.31h7.826l-6.681-9.053-3.913 5.327 2.768 3.726Zm-45.307-9.095 2.976-8.012 2.872 8.012h-5.848Zm.333-14.214-9.781 23.309h6.118l1.707-4.579h9.011l1.811 4.579h6.264l-9.677-23.31h-5.453v.001ZM380.01 345.29h-23.343v1.1c2.69.123 3.543.49 3.543 3.3v18.943c0 2.934-.86 3.177-3.543 3.3v.977h13.076v-.977c-3.3-.123-4.033-.49-4.033-3.3v-9.043h4.764c3.543 0 5.256.86 5.867 4.033h1.1v-9.78h-1.1c-.49 2.934-1.467 3.667-5.867 3.667h-4.764v-8.8c0-1.1.244-1.343 1.59-1.343h4.157c5.5 0 6.476.976 7.447 4.033h1.1l.006-6.11Zm17.723 24.81-5.376-7.943 2.933-3.667c1.956-2.323 3.056-3.544 4.767-3.667v-1.1h-7.58v1.1c1.343 0 1.956.367 1.956 1.223 0 .734-.859 1.72-1.59 2.444l-1.718 1.956-1.957-2.933c-.49-.61-.86-1.1-.86-1.719 0-.618.734-.977 1.957-.977v-1.1h-10.132v1.1c1.467.367 2.077 1.224 2.81 2.324l5.005 7.336-4.157 4.89c-1.466 1.718-2.2 2.323-3.91 2.578v.977h7.448v-.977c-.977 0-2.077-.244-2.077-.86 0-.615.734-1.466 1.957-2.933l1.719-2.077 2.076 3.057c.734 1.1 1.1 1.59 1.1 1.956 0 .49-.733.734-2.076.734v.976h10.39v-.976c-.851.235-1.585-.012-2.685-1.722Zm17.477-24.81h-13.077v1.1c2.81.123 3.544.49 3.544 3.3v18.943c0 2.934-.734 3.177-3.544 3.3v.977h12.834v-.977c-2.934-.123-3.667-.49-3.667-3.3v-7.21h3.667c7.09 0 10.885-2.81 10.885-8.066-.129-4.524-3.062-8.067-10.642-8.067Zm-4.033 14.543v-11.366c0-.977.366-1.59 2.323-1.59 3.667 0 6.477 2.077 6.477 5.866 0 4.4-2.32 7.09-8.8 7.09Zm27.623-6.476c-2.323 0-3.79 1.833-4.523 3.543h-.123v-2.933c0-.367 0-.61-.244-.61-.367 0-4.89 1.223-6.967 1.59v1.1c1.834 0 2.324.366 2.324 2.443v11.123c0 1.719-.734 2.077-2.324 2.323v.977h10.144v-.977c-1.833 0-2.933-.49-2.933-2.578V358.61c.61-.977 1.343-1.59 2.076-1.59.392.027.77.154 1.1.367.367.243.86.86 1.957.86.58421.0024047 1.145187-.228608 1.55829-.6417105.413102-.4131024.644115-.9740793.64171-1.5582895.123-1.224-.73-2.69-2.687-2.69Zm11.733 0c-5.5 0-9.29 4.276-9.29 10.143 0 5.867 3.79 10.143 9.29 10.143 5.5 0 9.29-4.276 9.29-10.143 0-5.867-3.79-10.143-9.29-10.143Zm0 18.576c-2.933 0-4.033-2.578-4.033-8.433s1.223-8.433 4.033-8.433c2.934 0 4.034 2.578 4.034 8.433.126 5.867-1.1 8.433-4.034 8.433Zm-93.783 10.53h7.293v1.175h-3.022v8.164h-1.272v-8.158h-3v-1.18l.001-.001Zm10.266 2.653c.46-.271.987-.412 1.522-.407v1.192c-.625615-.0664049-1.250718.1299221-1.726026.5420955-.475307.4121733-.758147 1.0031891-.780974 1.6319045v3.724h-1.24v-7.044h1.24v1.521c.203-.478.547-.882.985-1.16Zm6.867 6.686v-.988c-.525.693-1.347 1.04-2.467 1.04-.445308.0071513-.885986-.091196-1.286-.287-.354777-.1699923-.653274-.4382926-.86-.773-.196689-.3347485-.295759-.7178662-.286-1.106-.022686-.584004.238017-1.1430242.7-1.501.569692-.4017799 1.256539-.6032972 1.953-.573h2.24v-.332c.023739-.4314385-.145111-.8511829-.461-1.146-.381523-.2956328-.858507-.4405078-1.34-.407-.785748.0244822-1.545002.289785-2.175.76l-.518-.86c.437-.295.91-.534 1.406-.713.498267-.1567249 1.018783-.231036 1.541-.22.88 0 1.56.215 2.04.646.495.467.763 1.126.733 1.805v4.64l-1.22.015Zm-.74-1.392c.388-.254.652-.658.728-1.114v-.708h-2.065c-.43-.029-.86.058-1.246.252-.275103.1691054-.432289.47807-.407.8-.01.336.143.656.413.859.322.228.711.34 1.105.32.521535.018522 1.036037-.1246863 1.473-.41l-.001.001Zm10.754-8.5v9.892h-1.24v-1.4c-.25.454-.622.83-1.074 1.085-.48.262-1.02.393-1.567.381-.620565.0122811-1.232442-.1472638-1.768-.461-.510901-.3053369-.924877-.7491295-1.194-1.28-.292146-.5808149-.438689-1.2239546-.427-1.874-.012447-.6418087.134254-1.2767094.427-1.848.272-.524.686-.96 1.194-1.26.532556-.3077855 1.139006-.4644113 1.754-.453.55208-.0123413 1.09822.1160204 1.587.373.452.249.822.624 1.065 1.08v-4.24l1.243.006v-.001Zm-2.394 8.574c.364-.211.662-.52.859-.893.409029-.8187577.409029-1.7822423 0-2.601-.197055-.3728257-.495091-.682644-.86-.894-.374325-.2176227-.801078-.3286337-1.234-.321-.434009-.0075052-.861572.1057037-1.235.327-.363701.2147899-.660974.5259061-.859.899-.405768.8114335-.405768 1.7665665 0 2.578.197.373.495.683.86.894.766.426 1.699.426 2.466 0l.003.011Zm10.195-4.806c.56.645.839 1.54.839 2.687v.4h-5.586c.071.583.354 1.12.794 1.507.440919.382376 1.008533.5866744 1.592.573.4.003.796-.074 1.166-.226.354-.148.673-.366.94-.642l.681.708c-.35.373-.777.666-1.251.86-.517.209-1.07.313-1.627.306-.644201.0124977-1.280725-.1414668-1.848-.447-.530113-.29047-.964912-.7280478-1.252-1.26-.596486-1.1619183-.596486-2.5400817 0-3.702.29-.529.721-.967 1.246-1.266.557821-.3123627 1.188798-.4704521 1.828-.458 1.09-.006 1.916.314 2.478.96Zm-.287 2.125c.007839-.5720618-.224316-1.1212495-.640104-1.5142337-.415788-.3929842-.977185-.5938261-1.547896-.5537663-.571975-.0151169-1.127913.1900038-1.553.573-.423.394-.686.93-.739 1.507l4.48-.012Zm6.434-5.34h1.275v8.173h4.079v1.16h-5.354v-9.333Zm8.032-.3c.291595.3263538.291595.8196462 0 1.146-.306627.3015187-.798372.3015187-1.105 0-.291594-.3263538-.291594-.8196462 0-1.146.306628-.3015187.798373-.3015187 1.105 0Zm-1.166 2.578h1.24v7.061h-1.24v-7.061Zm8.586 7.061-2.255-3.437-1.372 1.432v2.005h-1.24v-9.891h1.24v6.302l3.415-3.458h1.452l-2.63 2.733 2.882 4.32-1.492-.006Zm7.814-6.124c.56.645.84 1.54.84 2.687v.4h-5.586c.071242.5823772.353348 1.1184844.793 1.507.441176.3826106 1.009191.5869249 1.593.573.4.003.796-.074 1.166-.226.353-.148.673-.366.94-.642l.678.708c-.35.373-.778.666-1.252.86-.516.209-1.07.313-1.627.306-.643878.0124608-1.280071-.1415067-1.847-.447-.530321-.2901933-.96519-.7278414-1.252-1.26-.59533-1.1621973-.59533-2.5398027 0-3.702.29-.529.721-.967 1.246-1.266.557527-.3121902 1.188135-.4702738 1.827-.458 1.095-.006 1.922.314 2.481.96Zm-.286 2.125c.007795-.5716889-.224091-1.1205354-.639428-1.5134527-.415337-.3929173-.976194-.5940213-1.546572-.5545473-.572026-.0154259-1.128075.1897358-1.553.573-.423.394-.686.93-.739 1.507l4.478-.012Zm10.622 4v-.99c-.524.694-1.346 1.04-2.467 1.04-.445227.0074623-.885901-.0905414-1.286-.286-.354683-.1701336-.653144-.4384016-.86-.773-.196144-.3349734-.295174-.7179334-.286-1.106-.022686-.584004.238017-1.1430242.7-1.501.569692-.4017799 1.256539-.6032972 1.953-.573h2.24v-.332c.023739-.4314385-.145111-.8511829-.461-1.146-.381391-.2958871-.858474-.4407922-1.34-.407-.785783.0242895-1.545094.289612-2.175.76l-.522-.86c.438-.295.91-.534 1.407-.713.498243-.1568301 1.018776-.2311437 1.541-.22.88 0 1.56.215 2.04.646.494.467.762 1.126.733 1.805v4.64l-1.217.015v.001Zm-.74-1.393c.388-.254.652-.658.728-1.114v-.708h-2.068c-.43-.029-.86.058-1.246.252-.275103.1691054-.432289.47807-.407.8-.01.336.143.656.413.859.323.228.713.341 1.108.32.520521.0178991 1.033882-.1252833 1.47-.41h.003l-.001.001Zm14.094-7.113c.652708.5891114 1.003481 1.4421435.954 2.32 0 1.041-.32 1.848-.96 2.421-.64.573-1.537.86-2.692.86h-2.32v2.904h-1.28v-9.338h3.586c1.172 0 2.076.277 2.712.833Zm-.913 3.913c.444-.389.681-.963.641-1.552.038548-.5776913-.199762-1.1393167-.642-1.513-.425-.342-1.038-.513-1.839-.513h-2.265v4.094h2.265c.791.007 1.404-.164 1.84-.516Zm5.666-2.094c.460275-.2712543.985765-.411961 1.52-.407v1.192c-.625644-.0670269-1.250988.1291077-1.726286.5414369-.475297.4123292-.757747 1.0037224-.779714 1.6325631v3.724h-1.24v-7.044h1.24v1.521c.203-.478.547-.882.986-1.16Zm7.674.046c.536.292.98.729 1.28 1.26.614587 1.1571232.614587 2.5438768 0 3.701-.298033.5358217-.741857.9761785-1.28 1.27-1.179801.6042395-2.578199.6042395-3.758 0-.536367-.2921303-.979881-.7290616-1.28-1.261-.612843-1.15968-.612843-2.54732 0-3.707.3-.531.743-.968 1.28-1.26 1.180342-.6049226 2.579658-.6049226 3.76 0l-.002-.003Zm-3.108.948c-.358.211-.65.519-.84.888-.2.399-.298.84-.286 1.286-.012.453.087.9.286 1.307.187.373.48.683.84.893.765.42 1.69.42 2.455 0 .36-.207.65-.515.84-.885.205-.404.308-.853.3-1.306.007943-.4468857-.095138-.8887578-.3-1.286-.190496-.369405-.481739-.6772904-.84-.888-.762602-.4271157-1.692398-.4271157-2.455 0v-.009Z"/>
            <g fill="#B1B1B1">
                <path d="M486.615 493.481h-12.353v6.177h16.396z"/>
                <path d="M486.615 469H460v30.658h7.187v-24.482h19.428v6.177h-12.353v6.176h12.24c1.639535.0047979 3.2133165-.644313 4.3727416-1.8035504 1.1594252-1.1592374 1.8087909-2.7329139 1.804282-4.3724496v-6.177c0-3.48-2.6950236-6.176-6.0640236-6.176Zm153.064 8.984c-4.716 0-7.749 2.358-7.749 7.187v4.155c0 4.604 2.808 6.85 8.423 6.85h1.797v-2.582h-1.797c-4.155 0-5.39-1.123-5.39-4.492v-2.246h12.128v-1.797c0-4.717-2.92-7.075-7.412-7.075Zm-.112 2.583c2.92 0 4.604 1.46 4.604 3.818h-9.208c.224-2.47 1.46-3.818 4.604-3.818Zm-18.417 5.39v10.22h3.032v-10.22c0-3.818 1.01-5.39 5.278-5.39v-2.583c-6.064 0-8.31 2.583-8.31 7.973Zm38.294-1.123-5.615-6.513h-3.818l7.636 8.535-8.647 9.32h3.93l6.065-7.411 6.513 7.411h3.93l-8.647-9.32 7.637-8.535h-3.706l-5.278 6.513Zm-86.808-6.85c-5.053 0-7.636 2.47-7.636 7.412v3.593c0 4.941 2.583 7.412 7.636 7.412 5.166 0 7.637-2.358 7.637-7.3v-3.818c-.113-4.716-2.583-7.299-7.637-7.299Zm-.112 2.47c3.369 0 4.604 1.797 4.604 5.054v3.481c0 3.257-1.347 5.054-4.604 5.054s-4.604-1.797-4.604-5.054v-3.481c0-3.257 1.347-5.053 4.604-5.053v-.001Zm-67.717-7.187v22.91h3.033v-9.883h3.256l6.85 9.882h3.706l-7.3-10.219c3.37-.786 5.728-2.133 5.728-6.289 0-4.267-2.92-6.4-8.984-6.4h-6.289v-.001Zm3.145 2.471h3.257c3.48 0 5.951.674 5.951 3.93 0 3.594-2.807 4.043-5.951 4.043h-3.257v-7.973Zm100.957 2.246c-5.053 0-7.636 2.47-7.636 7.412v3.593c0 4.941 2.583 7.412 7.636 7.412 5.166 0 7.636-2.358 7.636-7.3v-3.818c-.112-4.716-2.582-7.299-7.636-7.299Zm-.112 2.47c3.369 0 4.604 1.797 4.604 5.054v3.481c0 3.257-1.348 5.054-4.604 5.054-3.257 0-4.604-1.797-4.604-5.054v-3.481c0-3.257 1.347-5.053 4.604-5.053v-.001Zm-23.808-4.604v20.326h3.032v-10.443h9.658v-2.583h-9.658v-7.3h9.658v-2.583h-12.69v2.583Zm-40.09-4.94v18.416c0 4.604 2.695 7.075 7.748 7.075 5.054 0 7.412-2.358 7.412-7.3v-4.042c.112-4.604-2.47-7.075-6.85-7.075-2.246 0-3.819.674-5.279 1.909v-8.984h-3.032l.001.001Zm7.636 9.657c3.369 0 4.604 1.797 4.604 4.716v4.043c0 2.92-1.01 4.717-4.604 4.717-3.145 0-4.605-1.572-4.605-4.717v-4.043c0-3.144 1.573-4.716 4.605-4.716Zm-19.877-2.583c-5.054 0-7.637 2.47-7.637 7.412v3.593c0 4.941 2.583 7.412 7.637 7.412 5.166 0 7.636-2.358 7.636-7.3v-3.818c-.112-4.716-2.583-7.299-7.636-7.299Zm-.113 2.47c3.37 0 4.605 1.797 4.605 5.054v3.481c0 3.257-1.348 5.054-4.605 5.054-3.256 0-4.604-1.797-4.604-5.054v-3.481c0-3.257 1.348-5.053 4.604-5.053v-.001Z"/>
            </g>
        </g>
        <g fill="#B1B1B1" transform="translate(368 551)">
            <circle cx="4" cy="4" r="4"/>
            <circle cx="22" cy="4" r="4"/>
            <circle cx="40" cy="4" r="4"/>
        </g>
        <g fill="#B1B1B1" fill-rule="nonzero">
            <path d="M328.322 241.623c-1.096 0-3.165-.306-3.165-3.178.05987252-1.4509716.30519878-2.8883146.73-4.277 1.156-3.3 3.287-3.972 4.687-3.972h6.513l.913-5.194h-7.913c-3.226-.06-6.391 1.1-8.887 3.178-2.678 2.444-4.2 6.843-4.2 10.143 0 3.605 1.522 8.677 8.704 8.677h7.974l1.096-5.5-6.452.123Z"/>
            <path d="M333.352 214 332 220.747h11.246L338.145 247h9.464l5.039-26.253h11L365 214z"/>
            <path d="M459.605 226.039c-1.35-.795-2.517-.978-5.219-.978h-32.482l-1.106 5.622c-.245-.794-.552-1.589-1.044-2.26-.561767-.8038695-1.295969-1.4721338-2.149-1.956-.798-.49-1.658-.856-2.579-1.04-.86-.183-1.78-.305-2.64-.366h-12.097l-3.622 18.211L393.78 225h-11.114l-10.746 19.494-.061-4.033c0-.978-.369-1.955-1.044-2.689-.676-.672-1.535-1.039-2.518-1.16v-.062c1.228-.183 2.395-.611 3.377-1.283 1.764422-1.0802322 2.8358165-3.0041913 2.825-5.073.061-1.772-.982-3.422-2.579-4.216-1.044-.55-2.272-.856-3.439-.917h-14.184l-1.044 5.133h9.886c.553 0 2.764 0 2.764 1.834 0 .794-.369 1.589-1.106 2.016-.9165921.4375854-1.938124.6074363-2.947.49h-9.395L350 247h7.982l1.536-7.761h1.842c.614-.061 1.29.122 1.719.55.368.489.491 1.1.43 1.65l-.246 5.5h15.658l1.965-4.156h7.184l.307 4.156h19.527c3.254.061 6.447-1.1 8.964-3.239.614-.55 1.106-1.161 1.597-1.772l-.983 5.01h17.562l1.105-5.682h-9.395l.614-2.995h7.86l.983-5.072h-7.86l.614-3.178h21.553c1.35 0 2.824.306 2.824 1.772 0 1.65-1.35 2.567-2.947 2.567h-10.869l-2.456 12.467h8.29l1.535-7.761h1.842c.614-.062 1.29.122 1.78.55.308.488.492 1.1.43 1.65l-.245 5.5h8.596l-.061-6.417c.061-1.1-.369-2.2-1.167-2.995-.668534-.5521551-1.475267-.9110873-2.333-1.038v-.062c1.474-.183 2.824-.794 3.991-1.71 1.412-1.163 2.272-2.874 2.272-4.707 0-1.406-.921-2.995-2.395-3.79v.002Zm-75.955 11.183 3.316-7.15h.123l.552 7.15h-3.991Zm28 .49c-1.167 3.36-3.316 3.666-4.667 3.666h-1.535l2.21-11.245h1.597c1.106 0 3.193.245 3.193 3.117-.061 1.589-.307 3.056-.798 4.461v.001Z"/>
        </g>
        <path fill="#B1B1B1" fill-rule="nonzero" d="m290.935 60-4.944 4.94L281 60l4.99-4.985L290.934 60h.001Zm12.085-12.074 8.515 8.506 4.991-4.983L303.02 38l-13.505 13.493 4.99 4.983 8.515-8.55Zm17.031 7.09L315.106 60l4.99 4.985L325.082 60l-5.032-4.985.001.001Zm-17.03 17.058-8.515-8.55-4.991 4.985L303.02 82l13.506-13.493-4.991-4.983-8.515 8.55h.001Zm0-7.131 4.989-4.987-4.99-4.939L298.03 60l4.99 4.94v.003h.001Zm52.47.513v-.084c0-3.223-1.721-4.857-4.516-5.931 1.72-.944 3.182-2.493 3.182-5.2v-.084c0-3.782-3.053-6.231-7.956-6.231h-11.225v24.106h11.483c5.461.042 9.032-2.192 9.032-6.574v-.002Zm-6.624-10.31c0 1.803-1.463 2.533-3.828 2.533h-4.901v-5.113h5.246c2.237 0 3.483.902 3.483 2.493v.087Zm1.334 9.624c0 1.804-1.419 2.622-3.744 2.622h-6.32v-5.287h6.15c2.71 0 3.914.99 3.914 2.621v.044Zm16.429 7.304V47.926h-5.333v24.106h5.333v.042Zm28.559 0V47.926h-5.249v14.868l-11.31-14.868h-4.904v24.106h5.248V56.735l11.698 15.34h4.517v-.001Zm29.415 0-10.362-24.277h-4.902l-10.366 24.277h5.463l2.193-5.413h10.194l2.192 5.413h5.592-.004Zm-9.676-10.098h-6.408l3.226-7.819 3.182 7.82v-.001Zm35.01 10.098V47.926h-5.248v14.868l-11.31-14.868h-4.904v24.106h5.248V56.735l11.698 15.34h4.517l-.001-.001Zm27.396-3.91-3.397-3.394c-1.894 1.718-3.57 2.835-6.366 2.835-4.128 0-7.01-3.438-7.01-7.563v-.128c0-4.125 2.924-7.519 7.01-7.519 2.408 0 4.302 1.03 6.194 2.706l3.396-3.91c-2.235-2.191-4.945-3.738-9.503-3.738-7.397 0-12.602 5.628-12.602 12.46V60c0 6.917 5.289 12.417 12.387 12.417 4.644.044 7.397-1.59 9.89-4.253h.001ZM500 72.074v-4.726h-13.119v-5.071h11.398v-4.726H486.88v-4.899h12.947v-4.726h-18.193v24.106H500v.042Z"/>
    </g>
</svg>
