<svg xmlns="http://www.w3.org/2000/svg" viewBox="0 0 845 188">
    <g fill="none" fill-rule="evenodd">
        <path fill="#000000" fill-rule="nonzero" d="M24.408 175.2V87.936l53.784 74.52h.432l55.08-78.192V175.2h25.056V12.336h-.432L78.624 123.36.216 12.336H0V175.2h24.408Zm224.424 0V17.952H223.56V175.2h25.272Zm117.072 0c14.112 0 27.144-3.132 39.096-9.396 11.952-6.264 21.492-15.192 28.62-26.784 7.128-11.592 10.692-25.02 10.692-40.284 0-13.824-2.952-26.856-8.856-39.096-5.904-12.24-15.3-22.248-28.188-30.024-12.888-7.776-29.196-11.664-48.924-11.664h-44.712V175.2h52.272Zm-4.536-24.192h-22.464V41.928h26.352c8.64 0 17.028 1.944 25.164 5.832 8.136 3.888 14.832 9.972 20.088 18.252s7.884 18.612 7.884 30.996c0 11.376-2.412 21.132-7.236 29.268s-11.52 14.292-20.088 18.468c-8.568 4.176-18.468 6.264-29.7 6.264ZM498.744 175.2l15.12-36.936h57.24l14.472 36.936h28.944L544.968 11.472h-1.512L469.8 175.2h28.944Zm63.936-58.536h-39.96l20.304-49.68 19.656 49.68Z"/>
        <path fill="#E7D218" d="M750.2312469 47.5055556c44.6599141 0 81.2401811 33.9868421 81.2401811 75.9868424 0 12.219298-10.391066 21.767544-23.485667 21.767544-13.0946 0-23.485666-9.926901-23.485666-21.767544 0-18.328948-15.395701-32.8406436-34.650645-32.8406436-19.2549444 0-34.6506449 14.8903506-34.6506449 32.8406436 0 21.75731 8.4717628 42.378655 24.259579 58.036549 2.0857034 2.00444 4.1604655 3.855495 6.2541216 5.571735-9.1582309-.410061-17.9734433-2.138968-26.2613401-4.999262-3.7832281-4.541795-7.1191117-9.487225-11.3627536-17.003705-6.911588-11.793673-10.3725322-26.624956-10.3725322-42.597891 0-27.0021087 23.4437769-48.6833038 52.2643777-48.6833038 28.8206005 0 52.2643775 21.6710018 51.8832615 48.2959578 0 3.424956 2.698713 5.70826 5.768241 5.70826 3.460944 0 5.76824-2.67065 5.76824-5.70826C813.4 89.402109 784.960515 62.4 749.9905579 62.4c-34.969957 0-63.409442 27.002109-63.7905579 60.099824 0 17.868893 4.2334764 34.606327 11.9175966 48.295958.2281687.395295.454303.78455.6785742 1.168024-11.0040893-7.20357-20.3967739-16.661652-27.5239761-27.717838-1.6221377-8.35074-1.8890131-15.218623-1.8890131-20.374915 0-11.83041 2.3114189-22.146199 6.5421409-31.3055559 13.0946004-27.498538 42.3484951-45.0599415 74.3059244-45.0599415Zm.3817968 54.9868424c13.0946003 0 23.4856663 9.9269 23.4856663 21.767544 0 17.950292 15.395701 32.840643 34.650645 32.840643 4.136428 0 8.094755-.687182 11.760607-1.944258-5.311813 6.08251-11.399619 11.470555-18.107829 16.011276-9.327566-.567435-17.24609-3.219156-24.286841-7.942484-13.696901-9.196955-21.692709-24.14843-21.692709-39.870599 0-3.452712-2.2845166-5.75452-5.7112915-5.75452S745 120.292293 745 123.35452c0 19.55509 9.8927728 37.959276 26.251544 49.07783 4.667373 3.195619 9.79115 5.654476 15.372533 7.33049-7.406329 3.152863-15.303256 5.378186-23.544052 6.530489-5.173583-3.160324-9.8966844-6.965854-14.7784001-11.631341-13.8581942-13.365497-21.1742476-31.305555-21.1742476-50.402046 0-12.219299 10.3910659-21.767544 23.4856664-21.767544Zm-52.8782574-69.6817481c31.7396175-16.4558425 72.6516467-16.4558425 104.7704587 0 14.393574 7.2091608 26.411082 17.4596078 36.061055 30.4353587C841.829735 72.763947 843.6 82.9752398 843.6 93.6c0 5.6002839-.491836 11.085694-1.434669 16.41539C834.914487 68.6901507 796.651356 37.2 750.6130437 37.2c-36.1881512 0-69.3012898 20.2426901-84.3151935 51.1695906-3.89621414 8.0230937-6.39148825 17.2060974-7.30566838 27.1868404C657.2967783 108.514752 656.4 101.162103 656.4 93.6c0-10.3733571 1.68747983-20.3525821 4.80290459-29.6781402 9.73753651-12.9778363 21.91207791-23.793641 36.53188171-31.1112099ZM750 0c26.441406 0 50.322032 10.9639996 67.343632 28.5937517-3.048809-1.9282688-6.210599-3.7142315-9.488668-5.3549853-35.172867-18.37432285-79.9075873-17.99473048-115.0907022 0-3.9085839 2.0002497-7.6879643 4.2174178-11.3275335 6.6462641C698.525212 11.5003397 722.9195819 0 750 0Z"/>
    </g>
</svg>
